<?xml version="1.0" encoding="utf-8"?>
<!-- Generator: Adobe Illustrator 16.0.0, SVG Export Plug-In . SVG Version: 6.00 Build 0)  -->
<!DOCTYPE svg PUBLIC "-//W3C//DTD SVG 1.1//EN" "http://www.w3.org/Graphics/SVG/1.1/DTD/svg11.dtd">
<svg version="1.1" id="Layer_1" xmlns="http://www.w3.org/2000/svg" xmlns:xlink="http://www.w3.org/1999/xlink" x="0px" y="0px"
	 width="74.646px" height="75px" viewBox="0 0 74.646 75" enable-background="new 0 0 74.646 75" xml:space="preserve">
<g id="Layer_1_1_" display="none">
	<circle display="inline" fill="#333333" cx="99.677" cy="37.245" r="37.323"/>
	<polygon display="inline" fill="#5EAD58" points="90.984,28.792 83.852,28.792 99.208,11.549 114.442,28.779 107.54,28.779 
		119.317,41.9 111.372,41.9 121.164,54.389 101.78,54.389 101.78,62.941 97.099,62.941 97.099,54.402 78.189,54.402 87.682,41.9 
		79.846,41.9 	"/>
</g>
<g id="Layer_1_copy">
	<path fill="#5EAD58" d="M37.323,21.068c-8.935,0-16.178,7.243-16.178,16.178c0,8.934,7.243,16.178,16.178,16.178
		c8.935,0,16.178-7.244,16.178-16.178C53.501,28.311,46.258,21.068,37.323,21.068z M38.234,44.677v3.707h-2.029v-3.701h-8.197
		l4.115-5.419h-3.396l4.828-5.682h-3.091l6.656-7.475l6.604,7.469h-2.992l5.104,5.688h-3.443l4.244,5.413H38.234L38.234,44.677z"/>
</g>
</svg>
